<svg width="32" height="32" viewBox="0 0 32 32" fill="none" xmlns="http://www.w3.org/2000/svg">
<rect width="32" height="32" fill="#9B6EFD"/>
<path d="M22.2109 19.3633C22.2835 19.3633 22.4022 19.3903 22.4717 19.4238C22.547 19.4574 22.6135 19.5174 22.6377 19.5742C22.6588 19.6245 22.6796 19.7652 22.6797 19.8926C22.6797 20.0736 22.6612 20.1542 22.5947 20.3018C22.5403 20.4225 22.4436 20.547 22.3076 20.6777C22.1958 20.785 22.045 20.9126 21.9756 20.9629C21.9061 21.0132 21.7883 21.1068 21.7158 21.1738C21.6403 21.2375 21.5133 21.4055 21.4287 21.543C21.3442 21.6803 21.2293 21.8778 21.1719 21.9785C21.1175 22.079 21.0054 22.3137 20.9238 22.498C20.8452 22.6825 20.7275 23.015 20.6641 23.2363C20.5522 23.6219 20.5488 23.6591 20.5488 24.1084C20.5488 24.5572 20.5523 24.5874 20.6338 24.7783C20.6942 24.9192 20.7273 25.0539 20.7363 25.2148C20.7454 25.3456 20.7359 25.5463 20.7178 25.667C20.6996 25.7877 20.6422 25.9927 20.5908 26.1201C20.5394 26.2508 20.4548 26.4215 20.4004 26.502C20.349 26.5824 20.2162 26.7635 20.1074 26.9043C19.9956 27.0451 19.8414 27.2302 19.7598 27.3174C19.6781 27.4046 19.5425 27.5287 19.4609 27.5957C19.3763 27.6594 19.1946 27.7598 19.0586 27.8135C18.9226 27.8705 18.6834 27.9376 18.5293 27.9678C18.342 28.0046 18.1607 28.0183 17.9795 28.0049C17.7469 27.9881 17.6773 27.971 17.4961 27.8672C17.3782 27.8035 17.1664 27.6655 17.0273 27.5615C16.8853 27.4576 16.6734 27.324 16.5586 27.2637C16.4076 27.1866 16.2567 27.0656 16.0303 26.8379C15.855 26.6635 15.6431 26.4651 15.5615 26.4014C15.4769 26.3343 15.3404 26.2506 15.2588 26.207C15.1742 26.1668 15.0593 26.1002 15.002 26.0566C14.9415 26.0164 14.76 25.8854 14.5938 25.7646C14.4305 25.6473 14.1979 25.4422 14.0801 25.3115C13.9621 25.1806 13.7174 24.8961 13.5361 24.6816C13.3518 24.4637 13.1221 24.1885 13.0254 24.0645C12.9287 23.9404 12.8111 23.7723 12.7627 23.6885C12.7116 23.6051 12.6722 23.5286 12.6719 23.5146C12.6719 23.4979 12.738 23.528 12.8164 23.5781C12.895 23.6251 12.9948 23.6959 13.0371 23.7295C13.0764 23.7664 13.1952 23.8534 13.2949 23.9238C13.3946 23.9974 13.5632 24.0877 13.6719 24.1279C13.777 24.1646 13.8765 24.1848 13.8926 24.1719C13.9047 24.1551 13.8869 24.108 13.8477 24.0645C13.8084 24.0209 13.6088 23.8299 13.4033 23.6455C13.1948 23.4577 12.9681 23.2493 12.8955 23.1855C12.826 23.1218 12.6959 23.0083 12.6113 22.9346C12.5237 22.8608 12.3515 22.7031 12.2246 22.5791C12.0977 22.4584 11.8436 22.1728 11.6592 21.9414C11.3873 21.6062 11.2326 21.4488 10.8428 21.127C10.5768 20.9057 10.3019 20.6571 10.2324 20.5732C10.163 20.4894 10.0781 20.3389 10.0449 20.2451C10.0117 20.1479 9.98438 20.0303 9.98438 19.9834C9.98439 19.9364 10.0031 19.8558 10.0303 19.7988C10.0575 19.7319 10.112 19.685 10.1875 19.6582C10.2512 19.6348 10.429 19.6148 10.5889 19.6182C10.8488 19.6182 10.8918 19.6276 11.2031 19.8154L11.2754 20.1172C11.3147 20.2948 11.3906 20.5027 11.457 20.6201C11.5174 20.7306 11.6134 20.8851 11.6738 20.959C11.7343 21.0361 11.8651 21.1702 11.9648 21.2607C12.0646 21.3547 12.427 21.6329 12.7715 21.8877C13.1161 22.1392 13.4578 22.3976 13.5273 22.458C13.5969 22.5184 13.7118 22.6324 13.7783 22.7129C13.8448 22.79 13.9746 22.9441 14.0713 23.0547C14.2134 23.2156 14.3191 23.2935 14.6455 23.4746C14.866 23.5986 15.0655 23.7157 15.0928 23.7393C15.1169 23.7627 15.247 23.8428 15.3799 23.9199C15.5129 23.997 15.6342 24.0576 15.6523 24.0576C15.6667 24.0568 15.6124 23.9801 15.5312 23.8867C15.4466 23.7929 15.217 23.5648 15.0176 23.3838C14.8181 23.1994 14.5912 22.9942 14.5156 22.9238C14.4401 22.8567 14.3222 22.7293 14.2588 22.6455C14.1923 22.5583 14.0708 22.3947 13.9893 22.2842C13.9047 22.1702 13.7418 21.9992 13.627 21.9053C13.5093 21.8115 13.3616 21.6905 13.2949 21.6367C13.2284 21.5831 12.9676 21.392 12.7197 21.2109C12.469 21.03 12.1887 20.7983 12.0918 20.6943C11.9952 20.5905 11.871 20.423 11.8135 20.3291C11.7288 20.1883 11.708 20.1172 11.708 19.9932C11.708 19.8727 11.7231 19.8128 11.7744 19.7559C11.8107 19.7123 11.8983 19.6578 11.9648 19.6377C12.0317 19.6143 12.2066 19.5977 12.3574 19.5977C12.5053 19.5977 12.6955 19.6178 12.7803 19.6445C12.8618 19.668 13.0313 19.7451 13.1582 19.8154C13.2821 19.8858 13.4515 19.9968 13.5361 20.0605C13.6177 20.1276 13.8079 20.2957 13.959 20.4365C14.1071 20.574 14.286 20.735 14.3525 20.792C14.4193 20.8458 14.6008 20.9827 14.7607 21.0898C14.9179 21.1971 15.0929 21.3182 15.1533 21.3584C15.2108 21.3986 15.3255 21.4761 15.4102 21.5264C15.4918 21.5767 15.6556 21.6802 15.7734 21.7539C15.8884 21.8277 16.1031 21.9518 16.248 22.0322C16.393 22.1126 16.619 22.2198 16.752 22.2734C16.8847 22.3236 17.0031 22.3511 17.0156 22.3379C17.0307 22.3211 16.9242 22.1936 16.7852 22.0527C16.643 21.9118 16.3259 21.5693 16.0781 21.291C15.8303 21.0161 15.5678 20.6976 15.4922 20.5869C15.4166 20.4763 15.3139 20.2952 15.2686 20.1846C15.2202 20.074 15.1836 19.93 15.1836 19.8662C15.1836 19.8026 15.2138 19.6921 15.25 19.625C15.2923 19.5479 15.3623 19.477 15.4258 19.4502C15.483 19.4235 15.5489 19.3929 15.5762 19.3828C15.6003 19.3728 15.7304 19.3697 15.8633 19.373C16.0749 19.3798 16.136 19.3965 16.3174 19.4971C16.4321 19.5607 16.6129 19.6882 16.7217 19.7754C16.8305 19.8659 17.157 20.1985 17.4502 20.5137C17.7525 20.8456 18.0553 21.1434 18.1611 21.2139C18.2609 21.2843 18.4424 21.3788 18.5693 21.4258C18.6931 21.4759 18.889 21.5221 19.0068 21.5322C19.1729 21.5456 19.252 21.536 19.3848 21.4824C19.4936 21.4355 19.5903 21.3648 19.6719 21.2676C19.7384 21.1871 19.9143 20.936 20.0654 20.708C20.2135 20.48 20.4102 20.222 20.5039 20.1348C20.5945 20.0476 20.763 19.916 20.8809 19.8389C20.9957 19.7617 21.2141 19.6481 21.3652 19.5811C21.5133 19.5174 21.7336 19.4399 21.8545 19.4131C21.9752 19.3863 22.1352 19.3634 22.2109 19.3633ZM15.4561 18.833C15.4801 18.8297 15.4435 18.8631 15.374 18.9033C15.3044 18.9437 15.1687 19.0508 15.0752 19.1445C14.9634 19.2518 14.8754 19.3722 14.8301 19.4795C14.7939 19.5699 14.7543 19.714 14.7422 19.7979C14.7331 19.8917 14.7423 20.0364 14.7725 20.1738C14.7997 20.3013 14.8213 20.4089 14.8213 20.4189C14.8206 20.4289 14.7784 20.4355 14.7305 20.4355C14.6761 20.4355 14.6035 20.3987 14.54 20.3418C14.4887 20.2915 14.4066 20.2176 14.3643 20.1807C14.3217 20.1468 14.1861 20.0229 14.0625 19.9092C13.9387 19.7953 13.7514 19.6378 13.6426 19.5605C13.5338 19.4835 13.3523 19.3729 13.2344 19.3125C13.1166 19.2522 12.9294 19.1781 12.8115 19.1445C12.6513 19.1009 12.524 19.0911 12.2822 19.1045C12.0981 19.1145 11.9079 19.1447 11.8291 19.1748C11.7535 19.205 11.6412 19.2722 11.4629 19.4131L11.2305 19.2891C11.1035 19.2186 10.9096 19.1441 10.8008 19.124C10.692 19.104 10.5169 19.1013 10.4082 19.1113C10.2994 19.1247 10.1356 19.1682 10.0449 19.2051C9.95126 19.2454 9.82429 19.3355 9.75488 19.4092C9.66423 19.5064 9.61332 19.6007 9.58008 19.7314C9.54686 19.8521 9.53436 19.9794 9.56152 20.2676L9.35645 20.251C9.24463 20.2409 8.87569 20.2179 8.53418 20.2012C8.19275 20.1811 7.67598 20.1401 7.38574 20.1133C7.09557 20.0865 6.7321 20.0434 6.58398 20.0166C6.43294 19.9898 6.20982 19.9522 6.08594 19.9287C5.96211 19.9086 5.80488 19.8686 5.73828 19.8418C5.67181 19.815 5.59276 19.7685 5.5625 19.7383C5.53239 19.7082 5.50891 19.6613 5.51172 19.6377C5.51172 19.6176 5.58431 19.5667 5.66895 19.5332C5.75705 19.4996 6.01961 19.4396 6.25195 19.3994C6.48469 19.3592 6.76884 19.3117 6.88672 19.2949C7.00168 19.2748 7.30098 19.2387 7.55176 19.2119C7.79965 19.1851 8.31078 19.1415 8.68555 19.1113C9.06008 19.0845 9.54007 19.0441 9.75781 19.0273C9.97242 19.0106 10.6408 18.9696 11.2393 18.9395C11.8377 18.9126 13.0198 18.8757 13.8691 18.8623C14.7154 18.8489 15.4319 18.8364 15.4561 18.833ZM17.043 18.8457C17.5569 18.8524 18.6752 18.8764 19.5215 18.8965C20.3678 18.9166 21.1843 18.943 21.6074 18.9766L21.3506 19.0742C21.2085 19.1279 20.9846 19.2319 20.8516 19.3057C20.7186 19.3794 20.5396 19.4964 20.458 19.5635C20.3735 19.6305 20.2379 19.7611 20.1533 19.8516C20.0717 19.9421 19.9359 20.1004 19.7031 20.3955L18.0254 20.4355L17.5928 19.9756C17.3571 19.7242 17.07 19.4429 16.9521 19.3457C16.8345 19.252 16.6716 19.128 16.5898 19.0742C16.5054 19.0173 16.3632 18.9403 16.2725 18.9033L16.1055 18.833L17.043 18.8457ZM22.958 19.0645C23.0457 19.0645 23.3092 19.0775 23.542 19.0977C23.7748 19.1178 24.189 19.1548 24.4639 19.1816C24.739 19.2085 25.2133 19.279 25.5215 19.3359C25.8927 19.4029 26.1343 19.463 26.2373 19.5166C26.3276 19.5633 26.3978 19.6201 26.3984 19.6504C26.3984 19.6772 26.3401 19.7278 26.2676 19.7646C26.1979 19.8015 26.0378 19.8521 25.9141 19.8789C25.7901 19.9091 25.5848 19.9461 25.4609 19.9629C25.337 19.983 25.0923 20.0201 24.917 20.0469C24.7417 20.0771 24.3332 20.1236 24.0098 20.1504C23.6868 20.1805 23.3488 20.204 23.2607 20.2041C23.1127 20.2041 23.1029 20.1973 23.124 20.127C23.1331 20.0867 23.1426 19.9622 23.1426 19.8516C23.1395 19.7344 23.1123 19.5706 23.0791 19.4668C23.0398 19.3528 22.9737 19.238 22.9072 19.1709L22.7979 19.0645H22.958ZM15.6221 16.5527C16.4199 16.5494 17.8675 16.5623 18.8408 16.5791C19.814 16.5959 20.9085 16.6264 21.2744 16.6465C21.6402 16.6633 22.4081 16.7003 22.9824 16.7305C23.5567 16.7573 24.2974 16.8042 24.6299 16.8311C24.9624 16.8579 25.5939 16.9179 26.0352 16.9648C26.4761 17.0151 26.9776 17.0817 27.1533 17.1152C27.3286 17.1521 27.5319 17.1961 27.6074 17.2129C27.683 17.2297 27.8007 17.2667 27.8701 17.2969C27.9637 17.3371 28 17.371 28 17.418C27.9998 17.4548 27.9698 17.5019 27.9307 17.5186C27.8943 17.5387 27.7429 17.5888 27.5918 17.6357C27.4347 17.6827 27.3044 17.7428 27.2803 17.7764C27.2562 17.8168 27.2441 17.9543 27.2441 18.1719C27.2441 18.3763 27.2264 18.5708 27.1992 18.6748C27.172 18.7653 27.1203 18.9028 27.0811 18.9766C27.0418 19.0503 26.9724 19.1477 26.8486 19.2783L26.752 19.2148C26.6976 19.178 26.5404 19.1073 26.3984 19.0537C26.2565 19.0001 26.0446 18.937 25.9297 18.9102C25.8118 18.8833 25.4458 18.8154 25.1133 18.7617C24.7808 18.7081 24.2575 18.6382 23.9492 18.6113C23.6408 18.5811 23.0846 18.5346 22.71 18.5078C22.3353 18.481 21.7977 18.4435 21.5166 18.4268C21.2325 18.4066 20.4437 18.3736 19.7637 18.3535C19.0836 18.3334 17.4298 18.3164 16.0908 18.3164C14.7519 18.3164 13.0805 18.3334 12.373 18.3535C11.6657 18.377 10.7406 18.4136 10.3174 18.4404C9.89421 18.4706 9.34063 18.5072 9.09277 18.5273C8.84193 18.5441 8.38919 18.5845 8.08105 18.6113C7.7728 18.6381 7.2495 18.7047 6.91699 18.7617C6.58491 18.8153 6.23768 18.8763 6.14648 18.8965C6.0558 18.9166 5.86472 18.9697 5.72266 19.0166C5.58064 19.0635 5.39054 19.1412 5.13379 19.2686L5.04883 19.1709C5.00345 19.1204 4.92143 18.9734 4.87012 18.8428C4.77946 18.6282 4.77097 18.5706 4.75586 18.1816C4.74689 17.9528 4.73462 17.7538 4.72559 17.7432C4.71652 17.7331 4.57436 17.686 4.4082 17.6357C4.24239 17.5856 4.08259 17.5316 4.05176 17.5146C4.02465 17.4979 4.00018 17.4614 4 17.4346C4 17.4078 4.03023 17.3608 4.06641 17.334C4.1057 17.3072 4.28437 17.2501 4.46875 17.2031C4.64983 17.1563 4.88808 17.1028 4.99707 17.0859C5.10588 17.0658 5.60189 17.0048 6.10059 16.9512C6.59931 16.8942 7.35514 16.8276 7.77832 16.8008C8.20149 16.7706 8.86984 16.733 9.25977 16.7129C9.64973 16.6961 10.2964 16.6627 10.6953 16.6426C11.0944 16.6225 12.0403 16.5964 12.7959 16.583C13.5515 16.5696 14.8241 16.5561 15.6221 16.5527ZM12.6602 11.0117C12.7055 11.0117 12.7542 11.0419 12.7783 11.0889C12.8025 11.1294 12.8298 11.29 12.8389 11.4473C12.851 11.6216 12.89 11.8367 12.9414 12.001C12.9867 12.1484 13.0743 12.3524 13.1348 12.4531C13.1982 12.5537 13.3074 12.6921 13.377 12.7559C13.4494 12.8228 13.5398 12.9 13.582 12.9268C13.6244 12.957 13.7241 13.0106 13.8086 13.0508C13.8902 13.0876 14.0353 13.1407 14.126 13.1709C14.2167 13.1977 14.3711 13.2312 14.4648 13.2412C14.6097 13.2546 14.6456 13.272 14.6758 13.3389C14.709 13.4093 14.7063 13.4363 14.667 13.5C14.6277 13.5602 14.5762 13.5834 14.4102 13.6035C14.2953 13.6203 14.1203 13.6643 14.0205 13.7012C13.9208 13.7381 13.7635 13.8052 13.6729 13.8555C13.5731 13.9058 13.4245 14.0294 13.3066 14.1602C13.1979 14.2808 13.0803 14.4418 13.0439 14.5156C13.0107 14.5894 12.9533 14.7409 12.917 14.8516C12.8808 14.9723 12.8441 15.1801 12.832 15.3711C12.8169 15.6257 12.8022 15.7063 12.7539 15.7666C12.6965 15.8404 12.6841 15.84 12.6055 15.7998C12.5573 15.7763 12.5179 15.723 12.5088 15.6729C12.4997 15.6259 12.4791 15.4448 12.4609 15.2705C12.4428 15.0961 12.3909 14.8541 12.3516 14.7334C12.3092 14.6127 12.2122 14.4219 12.1367 14.3047C12.0552 14.1808 11.9257 14.0402 11.8291 13.9697C11.7384 13.9027 11.6019 13.8181 11.5264 13.7812C11.4508 13.7477 11.3454 13.7006 11.291 13.6738C11.2396 13.647 11.088 13.6169 10.958 13.6035C10.795 13.5868 10.7102 13.5631 10.6709 13.5195C10.6438 13.486 10.6201 13.439 10.6201 13.4189C10.6203 13.3953 10.6352 13.3484 10.6562 13.3184C10.6836 13.2783 10.7564 13.2546 10.877 13.2412C10.9767 13.2311 11.134 13.1981 11.2246 13.168C11.3152 13.1411 11.4782 13.071 11.5869 13.0107C11.6927 12.9537 11.8557 12.8322 11.9434 12.7383C12.034 12.6477 12.1461 12.5103 12.1914 12.4365C12.2397 12.3628 12.3122 12.199 12.3545 12.0684C12.4028 11.9242 12.4487 11.7026 12.4668 11.498C12.4849 11.3138 12.5178 11.1294 12.542 11.0889C12.5692 11.0419 12.6148 11.0117 12.6602 11.0117ZM18.4453 6.68555C18.4876 6.68219 18.5394 6.70309 18.5605 6.72656C18.5786 6.75097 18.5994 6.8912 18.6084 7.03809C18.6144 7.18563 18.6361 7.44074 18.6572 7.6084C18.6784 7.77588 18.7264 8.0302 18.7656 8.17773C18.8049 8.32528 18.9045 8.5978 18.9922 8.78223C19.0768 8.96658 19.1615 9.1477 19.1826 9.18457C19.2039 9.22494 19.28 9.3355 19.3555 9.43262C19.4312 9.52993 19.6127 9.71059 19.7637 9.83789C19.9148 9.96195 20.1292 10.1135 20.2471 10.1738C20.3619 10.2342 20.5344 10.3141 20.625 10.3477C20.7157 10.3845 20.8729 10.438 20.9727 10.4648C21.0725 10.4917 21.2899 10.5326 21.4561 10.5527C21.6223 10.5762 21.7889 10.6127 21.8252 10.6328C21.8734 10.663 21.8945 10.7071 21.8945 10.7773C21.8945 10.8507 21.8763 10.8877 21.8252 10.9111C21.7889 10.9279 21.5798 10.9649 21.3652 10.9951C21.148 11.0253 20.8976 11.0788 20.8066 11.1123C20.716 11.1458 20.5795 11.2024 20.5039 11.2393C20.4284 11.2728 20.2863 11.3467 20.1865 11.4004C20.0869 11.4506 19.924 11.5646 19.8242 11.6484C19.7245 11.7323 19.5672 11.8838 19.4766 11.9844C19.383 12.0848 19.2588 12.2519 19.1982 12.3525C19.1378 12.4531 19.0323 12.6647 18.9658 12.8223C18.8993 12.9799 18.8108 13.235 18.7715 13.3926C18.7292 13.5502 18.6813 13.8424 18.6602 14.0469C18.642 14.2513 18.6176 14.5026 18.6055 14.6064C18.5904 14.7539 18.569 14.8073 18.5176 14.8408C18.4633 14.8776 18.4392 14.8746 18.3818 14.8311C18.3185 14.7808 18.3092 14.7434 18.2881 14.3613C18.276 14.1334 18.2459 13.8417 18.2188 13.7109C18.1946 13.5802 18.1522 13.3926 18.125 13.292C18.0978 13.1914 18.0433 13.0169 18.001 12.9062C17.9617 12.7956 17.8411 12.561 17.7354 12.3867C17.6266 12.2024 17.4663 11.9912 17.3545 11.8838C17.2487 11.7798 17.115 11.6553 17.0576 11.6084C16.9999 11.558 16.8549 11.4638 16.7402 11.3936C16.6225 11.3266 16.4954 11.2599 16.4531 11.2432C16.4104 11.2296 16.2806 11.1796 16.166 11.1328C16.033 11.0792 15.7971 11.0281 15.5312 10.9912C15.1749 10.9443 15.099 10.9246 15.0537 10.8643L15.0488 10.8584C15.0034 10.8002 15.0044 10.7209 15.0449 10.6592C15.0812 10.6057 15.1484 10.5862 15.417 10.5527C15.5953 10.5326 15.8251 10.4917 15.9248 10.4648C16.0246 10.4347 16.1819 10.3845 16.2725 10.3477C16.3632 10.3107 16.5205 10.2401 16.6201 10.1865C16.7199 10.1362 16.895 10.0226 17.0127 9.93555C17.1276 9.84836 17.3121 9.67332 17.4209 9.5459C17.5297 9.41849 17.6717 9.22442 17.7412 9.11719C17.8077 9.00656 17.8981 8.83206 17.9404 8.73145C17.9858 8.63085 18.0497 8.44982 18.0859 8.3291C18.1192 8.20838 18.1702 7.99685 18.1943 7.85938C18.2215 7.72181 18.2517 7.42672 18.2607 7.20215C18.2758 6.94145 18.2971 6.77733 18.3242 6.74316C18.3454 6.70967 18.4 6.68561 18.4453 6.68555ZM14.2559 4C14.2921 4 14.3467 4.02701 14.377 4.06055C14.4162 4.10079 14.4317 4.16775 14.4287 4.30176C14.4287 4.40236 14.4559 4.61388 14.4922 4.77148C14.5254 4.9289 14.5886 5.12969 14.6309 5.22363C14.6732 5.31417 14.74 5.44508 14.7793 5.50879C14.8185 5.57242 14.942 5.70301 15.0537 5.79688C15.1654 5.89061 15.3076 5.99461 15.3652 6.02832C15.4189 6.05966 15.6183 6.11766 16.1426 6.2373C16.2106 6.25299 16.2612 6.31122 16.2666 6.38086C16.2696 6.44448 16.2574 6.51843 16.2363 6.54199C16.2152 6.56211 16.1088 6.59248 16 6.60254C15.8912 6.61263 15.7218 6.65259 15.6221 6.68945C15.5223 6.72638 15.3528 6.80297 15.2471 6.86328C15.1172 6.93369 14.9994 7.03152 14.8906 7.16895C14.8 7.27962 14.6822 7.46068 14.6309 7.57129C14.5795 7.68195 14.5193 7.85645 14.4951 7.95703C14.4709 8.05767 14.4437 8.27562 14.4316 8.43652C14.4196 8.64404 14.4013 8.73808 14.3682 8.76172C14.344 8.77849 14.2922 8.79492 14.2529 8.79492C14.2167 8.79485 14.1687 8.76132 14.1445 8.71777C14.1204 8.67743 14.0961 8.50363 14.084 8.32617C14.0749 8.13515 14.0441 7.94049 14.0078 7.83984C13.9776 7.74609 13.9116 7.59182 13.8633 7.49121C13.818 7.39067 13.703 7.22269 13.6094 7.12207C13.5157 7.01812 13.364 6.89014 13.2764 6.83984C13.1857 6.78623 13.0378 6.7161 12.9473 6.68262C12.8567 6.64913 12.6938 6.61209 12.585 6.59863C12.4761 6.58522 12.3577 6.55821 12.3184 6.53809C12.2762 6.51125 12.249 6.4676 12.249 6.41406C12.2491 6.36719 12.267 6.31346 12.2881 6.29004C12.3093 6.26657 12.3762 6.23955 12.4336 6.22949C12.4913 6.21603 12.6485 6.18303 12.7812 6.15625C12.9172 6.12605 13.1135 6.05237 13.2344 5.98535C13.3583 5.91494 13.5156 5.78741 13.6123 5.67676C13.706 5.57287 13.8206 5.39847 13.875 5.27441C13.9264 5.1537 13.9904 4.99913 14.0176 4.92871C14.0447 4.86145 14.0749 4.65734 14.084 4.47656C14.0959 4.29417 14.1196 4.12084 14.1436 4.07812L14.1455 4.07227C14.17 4.03284 14.2171 4.00011 14.2559 4Z" fill="white"/>
</svg>
